<?xml version="1.0" encoding="UTF-8"?>
<mxfile host="app.diagrams.net" modified="2024-01-31T06:39:33.400Z" agent="Mozilla/5.0 (Windows NT 10.0; Win64; x64) AppleWebKit/537.36 (KHTML, like Gecko) Chrome/121.0.0.0 Safari/537.36 Edg/121.0.0.0" etag="r1Jn_oyCJigurb-TWJLK" version="23.0.2" type="browser">
  <diagram name="第 1 页" id="3PVEKyujBOwQawj6S-Ko">
    <mxGraphModel dx="2630" dy="1258" grid="1" gridSize="10" guides="1" tooltips="1" connect="1" arrows="1" fold="1" page="1" pageScale="1" pageWidth="827" pageHeight="1169" math="0" shadow="0">
      <root>
        <mxCell id="0" />
        <mxCell id="1" parent="0" />
        <mxCell id="MwAe-ZKwVNbbqnce8Q7p-1" value="&lt;font style=&quot;font-size: 28px;&quot; face=&quot;Times New Roman&quot;&gt;4，8，9，10，11&amp;nbsp;&amp;nbsp;&lt;/font&gt;" style="rounded=0;whiteSpace=wrap;html=1;align=center;" vertex="1" parent="1">
          <mxGeometry x="-350" y="328" width="258.75" height="40" as="geometry" />
        </mxCell>
        <mxCell id="MwAe-ZKwVNbbqnce8Q7p-2" value="" style="rounded=0;whiteSpace=wrap;html=1;rotation=90;" vertex="1" parent="1">
          <mxGeometry x="-301.25" y="416.44000000000005" width="61.25" height="26.88" as="geometry" />
        </mxCell>
        <mxCell id="MwAe-ZKwVNbbqnce8Q7p-3" value="" style="endArrow=none;html=1;rounded=0;" edge="1" parent="1">
          <mxGeometry width="50" height="50" relative="1" as="geometry">
            <mxPoint x="-271.5700000000001" y="398" as="sourcePoint" />
            <mxPoint x="-271.25" y="358" as="targetPoint" />
          </mxGeometry>
        </mxCell>
        <mxCell id="MwAe-ZKwVNbbqnce8Q7p-4" value="" style="rounded=0;whiteSpace=wrap;html=1;rotation=90;" vertex="1" parent="1">
          <mxGeometry x="-341.25" y="416.44000000000005" width="61.25" height="26.88" as="geometry" />
        </mxCell>
        <mxCell id="MwAe-ZKwVNbbqnce8Q7p-5" value="" style="endArrow=none;html=1;rounded=0;" edge="1" parent="1">
          <mxGeometry width="50" height="50" relative="1" as="geometry">
            <mxPoint x="-311.57000000000016" y="398" as="sourcePoint" />
            <mxPoint x="-311.25" y="358" as="targetPoint" />
          </mxGeometry>
        </mxCell>
        <mxCell id="MwAe-ZKwVNbbqnce8Q7p-6" value="" style="rounded=0;whiteSpace=wrap;html=1;rotation=90;" vertex="1" parent="1">
          <mxGeometry x="-258.25" y="416.44000000000005" width="61.25" height="26.88" as="geometry" />
        </mxCell>
        <mxCell id="MwAe-ZKwVNbbqnce8Q7p-7" value="" style="endArrow=none;html=1;rounded=0;" edge="1" parent="1">
          <mxGeometry width="50" height="50" relative="1" as="geometry">
            <mxPoint x="-228.25" y="398" as="sourcePoint" />
            <mxPoint x="-228.25" y="359" as="targetPoint" />
          </mxGeometry>
        </mxCell>
        <mxCell id="MwAe-ZKwVNbbqnce8Q7p-8" value="" style="rounded=0;whiteSpace=wrap;html=1;rotation=90;" vertex="1" parent="1">
          <mxGeometry x="-202" y="416.44000000000005" width="61.25" height="26.88" as="geometry" />
        </mxCell>
        <mxCell id="MwAe-ZKwVNbbqnce8Q7p-9" value="" style="endArrow=none;html=1;rounded=0;" edge="1" parent="1">
          <mxGeometry width="50" height="50" relative="1" as="geometry">
            <mxPoint x="-172.25" y="398" as="sourcePoint" />
            <mxPoint x="-172.32000000000016" y="360" as="targetPoint" />
          </mxGeometry>
        </mxCell>
        <mxCell id="MwAe-ZKwVNbbqnce8Q7p-10" value="" style="rounded=0;whiteSpace=wrap;html=1;rotation=90;" vertex="1" parent="1">
          <mxGeometry x="-152.5" y="416.44000000000005" width="61.25" height="26.88" as="geometry" />
        </mxCell>
        <mxCell id="MwAe-ZKwVNbbqnce8Q7p-11" value="" style="endArrow=none;html=1;rounded=0;" edge="1" parent="1">
          <mxGeometry width="50" height="50" relative="1" as="geometry">
            <mxPoint x="-123.25" y="398" as="sourcePoint" />
            <mxPoint x="-122.82000000000016" y="359" as="targetPoint" />
          </mxGeometry>
        </mxCell>
        <mxCell id="MwAe-ZKwVNbbqnce8Q7p-12" value="&lt;font face=&quot;Times New Roman&quot;&gt;&lt;span style=&quot;font-size: 28px;&quot;&gt;2，17，19&amp;nbsp;&amp;nbsp;&lt;/span&gt;&lt;/font&gt;" style="rounded=0;whiteSpace=wrap;html=1;align=center;" vertex="1" parent="1">
          <mxGeometry x="-51.25" y="328" width="160" height="40" as="geometry" />
        </mxCell>
        <mxCell id="MwAe-ZKwVNbbqnce8Q7p-13" value="" style="rounded=0;whiteSpace=wrap;html=1;rotation=90;" vertex="1" parent="1">
          <mxGeometry x="4.5" y="416.44000000000005" width="61.25" height="26.88" as="geometry" />
        </mxCell>
        <mxCell id="MwAe-ZKwVNbbqnce8Q7p-14" value="" style="endArrow=none;html=1;rounded=0;" edge="1" parent="1">
          <mxGeometry width="50" height="50" relative="1" as="geometry">
            <mxPoint x="34.179999999999836" y="398" as="sourcePoint" />
            <mxPoint x="34.5" y="358" as="targetPoint" />
          </mxGeometry>
        </mxCell>
        <mxCell id="MwAe-ZKwVNbbqnce8Q7p-15" value="" style="rounded=0;whiteSpace=wrap;html=1;rotation=90;" vertex="1" parent="1">
          <mxGeometry x="-51.25" y="416.44000000000005" width="61.25" height="26.88" as="geometry" />
        </mxCell>
        <mxCell id="MwAe-ZKwVNbbqnce8Q7p-16" value="" style="endArrow=none;html=1;rounded=0;" edge="1" parent="1">
          <mxGeometry width="50" height="50" relative="1" as="geometry">
            <mxPoint x="-21.570000000000164" y="398" as="sourcePoint" />
            <mxPoint x="-21.25" y="358" as="targetPoint" />
          </mxGeometry>
        </mxCell>
        <mxCell id="MwAe-ZKwVNbbqnce8Q7p-17" value="" style="rounded=0;whiteSpace=wrap;html=1;rotation=90;" vertex="1" parent="1">
          <mxGeometry x="57.5" y="416.44000000000005" width="61.25" height="26.88" as="geometry" />
        </mxCell>
        <mxCell id="MwAe-ZKwVNbbqnce8Q7p-18" value="" style="endArrow=none;html=1;rounded=0;" edge="1" parent="1">
          <mxGeometry width="50" height="50" relative="1" as="geometry">
            <mxPoint x="87.5" y="398" as="sourcePoint" />
            <mxPoint x="87.5" y="359" as="targetPoint" />
          </mxGeometry>
        </mxCell>
        <mxCell id="MwAe-ZKwVNbbqnce8Q7p-19" value="&lt;font face=&quot;Times New Roman&quot;&gt;&lt;span style=&quot;font-size: 28px;&quot;&gt;2，23，28&amp;nbsp;&amp;nbsp;&lt;/span&gt;&lt;/font&gt;" style="rounded=0;whiteSpace=wrap;html=1;align=center;" vertex="1" parent="1">
          <mxGeometry x="148.75" y="328" width="160" height="40" as="geometry" />
        </mxCell>
        <mxCell id="MwAe-ZKwVNbbqnce8Q7p-20" value="" style="rounded=0;whiteSpace=wrap;html=1;rotation=90;" vertex="1" parent="1">
          <mxGeometry x="205.5" y="416.44000000000005" width="61.25" height="26.88" as="geometry" />
        </mxCell>
        <mxCell id="MwAe-ZKwVNbbqnce8Q7p-21" value="" style="endArrow=none;html=1;rounded=0;" edge="1" parent="1">
          <mxGeometry width="50" height="50" relative="1" as="geometry">
            <mxPoint x="235.17999999999984" y="398" as="sourcePoint" />
            <mxPoint x="235.5" y="358" as="targetPoint" />
          </mxGeometry>
        </mxCell>
        <mxCell id="MwAe-ZKwVNbbqnce8Q7p-22" value="" style="rounded=0;whiteSpace=wrap;html=1;rotation=90;" vertex="1" parent="1">
          <mxGeometry x="148.75" y="416.44000000000005" width="61.25" height="26.88" as="geometry" />
        </mxCell>
        <mxCell id="MwAe-ZKwVNbbqnce8Q7p-23" value="" style="endArrow=none;html=1;rounded=0;" edge="1" parent="1">
          <mxGeometry width="50" height="50" relative="1" as="geometry">
            <mxPoint x="178.42999999999984" y="398" as="sourcePoint" />
            <mxPoint x="178.75" y="358" as="targetPoint" />
          </mxGeometry>
        </mxCell>
        <mxCell id="MwAe-ZKwVNbbqnce8Q7p-24" value="" style="rounded=0;whiteSpace=wrap;html=1;rotation=90;" vertex="1" parent="1">
          <mxGeometry x="257.5" y="416.44000000000005" width="61.25" height="26.88" as="geometry" />
        </mxCell>
        <mxCell id="MwAe-ZKwVNbbqnce8Q7p-25" value="" style="endArrow=none;html=1;rounded=0;" edge="1" parent="1">
          <mxGeometry width="50" height="50" relative="1" as="geometry">
            <mxPoint x="287.5" y="398" as="sourcePoint" />
            <mxPoint x="287.5" y="359" as="targetPoint" />
          </mxGeometry>
        </mxCell>
        <mxCell id="MwAe-ZKwVNbbqnce8Q7p-26" value="&lt;font face=&quot;Times New Roman&quot;&gt;&lt;span style=&quot;font-size: 28px;&quot;&gt;2，31，32&amp;nbsp;&amp;nbsp;&lt;/span&gt;&lt;/font&gt;" style="rounded=0;whiteSpace=wrap;html=1;align=center;" vertex="1" parent="1">
          <mxGeometry x="354.75" y="328" width="160" height="40" as="geometry" />
        </mxCell>
        <mxCell id="MwAe-ZKwVNbbqnce8Q7p-27" value="" style="rounded=0;whiteSpace=wrap;html=1;rotation=90;" vertex="1" parent="1">
          <mxGeometry x="411.5" y="416.44000000000005" width="61.25" height="26.88" as="geometry" />
        </mxCell>
        <mxCell id="MwAe-ZKwVNbbqnce8Q7p-28" value="" style="endArrow=none;html=1;rounded=0;" edge="1" parent="1">
          <mxGeometry width="50" height="50" relative="1" as="geometry">
            <mxPoint x="441.17999999999984" y="398" as="sourcePoint" />
            <mxPoint x="441.5" y="358" as="targetPoint" />
          </mxGeometry>
        </mxCell>
        <mxCell id="MwAe-ZKwVNbbqnce8Q7p-29" value="" style="rounded=0;whiteSpace=wrap;html=1;rotation=90;" vertex="1" parent="1">
          <mxGeometry x="354.75" y="416.44000000000005" width="61.25" height="26.88" as="geometry" />
        </mxCell>
        <mxCell id="MwAe-ZKwVNbbqnce8Q7p-30" value="" style="endArrow=none;html=1;rounded=0;" edge="1" parent="1">
          <mxGeometry width="50" height="50" relative="1" as="geometry">
            <mxPoint x="384.42999999999984" y="398" as="sourcePoint" />
            <mxPoint x="384.75" y="358" as="targetPoint" />
          </mxGeometry>
        </mxCell>
        <mxCell id="MwAe-ZKwVNbbqnce8Q7p-31" value="" style="rounded=0;whiteSpace=wrap;html=1;rotation=90;" vertex="1" parent="1">
          <mxGeometry x="463.5" y="416.44000000000005" width="61.25" height="26.88" as="geometry" />
        </mxCell>
        <mxCell id="MwAe-ZKwVNbbqnce8Q7p-32" value="" style="endArrow=none;html=1;rounded=0;" edge="1" parent="1">
          <mxGeometry width="50" height="50" relative="1" as="geometry">
            <mxPoint x="493.5" y="398" as="sourcePoint" />
            <mxPoint x="493.5" y="359" as="targetPoint" />
          </mxGeometry>
        </mxCell>
        <mxCell id="MwAe-ZKwVNbbqnce8Q7p-33" value="&lt;font face=&quot;Times New Roman&quot;&gt;&lt;span style=&quot;font-size: 28px;&quot;&gt;3，39，40，41&amp;nbsp;&amp;nbsp;&lt;/span&gt;&lt;/font&gt;" style="rounded=0;whiteSpace=wrap;html=1;align=center;" vertex="1" parent="1">
          <mxGeometry x="556.75" y="328" width="220" height="40" as="geometry" />
        </mxCell>
        <mxCell id="MwAe-ZKwVNbbqnce8Q7p-34" value="" style="rounded=0;whiteSpace=wrap;html=1;rotation=90;" vertex="1" parent="1">
          <mxGeometry x="615.5" y="416.44000000000005" width="61.25" height="26.88" as="geometry" />
        </mxCell>
        <mxCell id="MwAe-ZKwVNbbqnce8Q7p-35" value="" style="endArrow=none;html=1;rounded=0;" edge="1" parent="1">
          <mxGeometry width="50" height="50" relative="1" as="geometry">
            <mxPoint x="645.1799999999998" y="398" as="sourcePoint" />
            <mxPoint x="645.5" y="358" as="targetPoint" />
          </mxGeometry>
        </mxCell>
        <mxCell id="MwAe-ZKwVNbbqnce8Q7p-36" value="" style="rounded=0;whiteSpace=wrap;html=1;rotation=90;" vertex="1" parent="1">
          <mxGeometry x="559.5" y="416.44000000000005" width="61.25" height="26.88" as="geometry" />
        </mxCell>
        <mxCell id="MwAe-ZKwVNbbqnce8Q7p-37" value="" style="endArrow=none;html=1;rounded=0;" edge="1" parent="1">
          <mxGeometry width="50" height="50" relative="1" as="geometry">
            <mxPoint x="589.1799999999998" y="398" as="sourcePoint" />
            <mxPoint x="589.5" y="358" as="targetPoint" />
          </mxGeometry>
        </mxCell>
        <mxCell id="MwAe-ZKwVNbbqnce8Q7p-38" value="" style="rounded=0;whiteSpace=wrap;html=1;rotation=90;" vertex="1" parent="1">
          <mxGeometry x="669.5" y="416.44000000000005" width="61.25" height="26.88" as="geometry" />
        </mxCell>
        <mxCell id="MwAe-ZKwVNbbqnce8Q7p-39" value="" style="endArrow=none;html=1;rounded=0;" edge="1" parent="1">
          <mxGeometry width="50" height="50" relative="1" as="geometry">
            <mxPoint x="699.5" y="398" as="sourcePoint" />
            <mxPoint x="699.5" y="359" as="targetPoint" />
          </mxGeometry>
        </mxCell>
        <mxCell id="MwAe-ZKwVNbbqnce8Q7p-40" value="" style="rounded=0;whiteSpace=wrap;html=1;rotation=90;" vertex="1" parent="1">
          <mxGeometry x="725.75" y="416.44000000000005" width="61.25" height="26.88" as="geometry" />
        </mxCell>
        <mxCell id="MwAe-ZKwVNbbqnce8Q7p-41" value="" style="endArrow=none;html=1;rounded=0;" edge="1" parent="1">
          <mxGeometry width="50" height="50" relative="1" as="geometry">
            <mxPoint x="755.5" y="398" as="sourcePoint" />
            <mxPoint x="755.4299999999998" y="360" as="targetPoint" />
          </mxGeometry>
        </mxCell>
        <mxCell id="MwAe-ZKwVNbbqnce8Q7p-53" value="&lt;font face=&quot;Times New Roman&quot;&gt;&lt;span style=&quot;font-size: 28px;&quot;&gt;2，15，21&amp;nbsp;&amp;nbsp;&lt;/span&gt;&lt;/font&gt;" style="rounded=0;whiteSpace=wrap;html=1;align=center;" vertex="1" parent="1">
          <mxGeometry x="-51.25" y="198" width="160" height="40" as="geometry" />
        </mxCell>
        <mxCell id="MwAe-ZKwVNbbqnce8Q7p-54" value="&lt;font face=&quot;Times New Roman&quot;&gt;&lt;span style=&quot;font-size: 28px;&quot;&gt;3，38，42，49&amp;nbsp;&amp;nbsp;&lt;/span&gt;&lt;/font&gt;" style="rounded=0;whiteSpace=wrap;html=1;align=center;" vertex="1" parent="1">
          <mxGeometry x="594.75" y="198" width="235.25" height="42" as="geometry" />
        </mxCell>
        <mxCell id="MwAe-ZKwVNbbqnce8Q7p-55" value="" style="endArrow=none;html=1;rounded=0;exitX=0.5;exitY=0;exitDx=0;exitDy=0;" edge="1" parent="1">
          <mxGeometry width="50" height="50" relative="1" as="geometry">
            <mxPoint x="-223.625" y="328" as="sourcePoint" />
            <mxPoint x="-21.25" y="228" as="targetPoint" />
          </mxGeometry>
        </mxCell>
        <mxCell id="MwAe-ZKwVNbbqnce8Q7p-56" value="" style="endArrow=none;html=1;rounded=0;exitX=0.5;exitY=0;exitDx=0;exitDy=0;" edge="1" parent="1">
          <mxGeometry width="50" height="50" relative="1" as="geometry">
            <mxPoint x="32.75" y="328" as="sourcePoint" />
            <mxPoint x="32.75" y="228" as="targetPoint" />
          </mxGeometry>
        </mxCell>
        <mxCell id="MwAe-ZKwVNbbqnce8Q7p-57" value="" style="endArrow=none;html=1;rounded=0;entryX=0.938;entryY=0.75;entryDx=0;entryDy=0;entryPerimeter=0;exitX=0.5;exitY=0;exitDx=0;exitDy=0;" edge="1" source="MwAe-ZKwVNbbqnce8Q7p-19" target="MwAe-ZKwVNbbqnce8Q7p-53" parent="1">
          <mxGeometry width="50" height="50" relative="1" as="geometry">
            <mxPoint x="78.75" y="358" as="sourcePoint" />
            <mxPoint x="128.75" y="308" as="targetPoint" />
          </mxGeometry>
        </mxCell>
        <mxCell id="MwAe-ZKwVNbbqnce8Q7p-58" value="" style="endArrow=none;html=1;rounded=0;exitX=0.5;exitY=0;exitDx=0;exitDy=0;" edge="1" source="MwAe-ZKwVNbbqnce8Q7p-26" parent="1">
          <mxGeometry width="50" height="50" relative="1" as="geometry">
            <mxPoint x="437.75" y="328" as="sourcePoint" />
            <mxPoint x="633" y="230" as="targetPoint" />
          </mxGeometry>
        </mxCell>
        <mxCell id="MwAe-ZKwVNbbqnce8Q7p-59" value="" style="endArrow=none;html=1;rounded=0;exitX=0.5;exitY=0;exitDx=0;exitDy=0;" edge="1" source="MwAe-ZKwVNbbqnce8Q7p-33" parent="1">
          <mxGeometry width="50" height="50" relative="1" as="geometry">
            <mxPoint x="682.75" y="316.96000000000004" as="sourcePoint" />
            <mxPoint x="690" y="227" as="targetPoint" />
          </mxGeometry>
        </mxCell>
        <mxCell id="MwAe-ZKwVNbbqnce8Q7p-60" value="" style="endArrow=none;html=1;rounded=0;exitX=0.5;exitY=0;exitDx=0;exitDy=0;" edge="1" source="MwAe-ZKwVNbbqnce8Q7p-65" parent="1">
          <mxGeometry width="50" height="50" relative="1" as="geometry">
            <mxPoint x="904" y="328.0000000000002" as="sourcePoint" />
            <mxPoint x="744.75" y="228" as="targetPoint" />
          </mxGeometry>
        </mxCell>
        <mxCell id="MwAe-ZKwVNbbqnce8Q7p-61" value="&lt;font face=&quot;Times New Roman&quot;&gt;&lt;span style=&quot;font-size: 29px;&quot;&gt;1，30&lt;/span&gt;&lt;/font&gt;" style="rounded=0;whiteSpace=wrap;html=1;align=center;" vertex="1" parent="1">
          <mxGeometry x="298.75" y="88" width="160" height="40" as="geometry" />
        </mxCell>
        <mxCell id="MwAe-ZKwVNbbqnce8Q7p-62" value="" style="endArrow=none;html=1;rounded=0;exitX=0.5;exitY=0;exitDx=0;exitDy=0;" edge="1" source="MwAe-ZKwVNbbqnce8Q7p-53" parent="1">
          <mxGeometry width="50" height="50" relative="1" as="geometry">
            <mxPoint x="521.75" y="338" as="sourcePoint" />
            <mxPoint x="298.75" y="128" as="targetPoint" />
          </mxGeometry>
        </mxCell>
        <mxCell id="MwAe-ZKwVNbbqnce8Q7p-63" value="" style="endArrow=none;html=1;rounded=0;entryX=1;entryY=1;entryDx=0;entryDy=0;exitX=0.5;exitY=0;exitDx=0;exitDy=0;" edge="1" source="MwAe-ZKwVNbbqnce8Q7p-54" target="MwAe-ZKwVNbbqnce8Q7p-61" parent="1">
          <mxGeometry width="50" height="50" relative="1" as="geometry">
            <mxPoint x="608.75" y="338" as="sourcePoint" />
            <mxPoint x="658.75" y="288" as="targetPoint" />
          </mxGeometry>
        </mxCell>
        <mxCell id="MwAe-ZKwVNbbqnce8Q7p-65" value="&lt;font face=&quot;Times New Roman&quot;&gt;&lt;span style=&quot;font-size: 28px;&quot;&gt;2，45，48&amp;nbsp;&amp;nbsp;&lt;/span&gt;&lt;/font&gt;" style="rounded=0;whiteSpace=wrap;html=1;align=center;" vertex="1" parent="1">
          <mxGeometry x="820" y="328" width="160" height="40" as="geometry" />
        </mxCell>
        <mxCell id="MwAe-ZKwVNbbqnce8Q7p-66" value="" style="rounded=0;whiteSpace=wrap;html=1;rotation=90;" vertex="1" parent="1">
          <mxGeometry x="876.75" y="416.44000000000005" width="61.25" height="26.88" as="geometry" />
        </mxCell>
        <mxCell id="MwAe-ZKwVNbbqnce8Q7p-67" value="" style="endArrow=none;html=1;rounded=0;" edge="1" parent="1">
          <mxGeometry width="50" height="50" relative="1" as="geometry">
            <mxPoint x="906.4299999999998" y="398" as="sourcePoint" />
            <mxPoint x="906.75" y="358" as="targetPoint" />
          </mxGeometry>
        </mxCell>
        <mxCell id="MwAe-ZKwVNbbqnce8Q7p-68" value="" style="rounded=0;whiteSpace=wrap;html=1;rotation=90;" vertex="1" parent="1">
          <mxGeometry x="820" y="416.44000000000005" width="61.25" height="26.88" as="geometry" />
        </mxCell>
        <mxCell id="MwAe-ZKwVNbbqnce8Q7p-69" value="" style="endArrow=none;html=1;rounded=0;" edge="1" parent="1">
          <mxGeometry width="50" height="50" relative="1" as="geometry">
            <mxPoint x="849.6799999999998" y="398" as="sourcePoint" />
            <mxPoint x="850" y="358" as="targetPoint" />
          </mxGeometry>
        </mxCell>
        <mxCell id="MwAe-ZKwVNbbqnce8Q7p-70" value="" style="rounded=0;whiteSpace=wrap;html=1;rotation=90;" vertex="1" parent="1">
          <mxGeometry x="928.75" y="416.44000000000005" width="61.25" height="26.88" as="geometry" />
        </mxCell>
        <mxCell id="MwAe-ZKwVNbbqnce8Q7p-71" value="" style="endArrow=none;html=1;rounded=0;" edge="1" parent="1">
          <mxGeometry width="50" height="50" relative="1" as="geometry">
            <mxPoint x="958.75" y="398" as="sourcePoint" />
            <mxPoint x="958.75" y="359" as="targetPoint" />
          </mxGeometry>
        </mxCell>
        <mxCell id="MwAe-ZKwVNbbqnce8Q7p-72" value="&lt;font face=&quot;Times New Roman&quot;&gt;&lt;span style=&quot;font-size: 28px;&quot;&gt;2，50，55&amp;nbsp;&amp;nbsp;&lt;/span&gt;&lt;/font&gt;" style="rounded=0;whiteSpace=wrap;html=1;align=center;" vertex="1" parent="1">
          <mxGeometry x="1020" y="328" width="160" height="40" as="geometry" />
        </mxCell>
        <mxCell id="MwAe-ZKwVNbbqnce8Q7p-73" value="" style="rounded=0;whiteSpace=wrap;html=1;rotation=90;" vertex="1" parent="1">
          <mxGeometry x="1076.75" y="416.44000000000005" width="61.25" height="26.88" as="geometry" />
        </mxCell>
        <mxCell id="MwAe-ZKwVNbbqnce8Q7p-74" value="" style="endArrow=none;html=1;rounded=0;" edge="1" parent="1">
          <mxGeometry width="50" height="50" relative="1" as="geometry">
            <mxPoint x="1106.4299999999998" y="398" as="sourcePoint" />
            <mxPoint x="1106.75" y="358" as="targetPoint" />
          </mxGeometry>
        </mxCell>
        <mxCell id="MwAe-ZKwVNbbqnce8Q7p-75" value="" style="rounded=0;whiteSpace=wrap;html=1;rotation=90;" vertex="1" parent="1">
          <mxGeometry x="1020" y="416.44000000000005" width="61.25" height="26.88" as="geometry" />
        </mxCell>
        <mxCell id="MwAe-ZKwVNbbqnce8Q7p-76" value="" style="endArrow=none;html=1;rounded=0;" edge="1" parent="1">
          <mxGeometry width="50" height="50" relative="1" as="geometry">
            <mxPoint x="1049.6799999999998" y="398" as="sourcePoint" />
            <mxPoint x="1050" y="358" as="targetPoint" />
          </mxGeometry>
        </mxCell>
        <mxCell id="MwAe-ZKwVNbbqnce8Q7p-77" value="" style="rounded=0;whiteSpace=wrap;html=1;rotation=90;" vertex="1" parent="1">
          <mxGeometry x="1128.75" y="416.44000000000005" width="61.25" height="26.88" as="geometry" />
        </mxCell>
        <mxCell id="MwAe-ZKwVNbbqnce8Q7p-78" value="" style="endArrow=none;html=1;rounded=0;" edge="1" parent="1">
          <mxGeometry width="50" height="50" relative="1" as="geometry">
            <mxPoint x="1158.75" y="398" as="sourcePoint" />
            <mxPoint x="1158.75" y="359" as="targetPoint" />
          </mxGeometry>
        </mxCell>
        <mxCell id="MwAe-ZKwVNbbqnce8Q7p-79" value="" style="endArrow=none;html=1;rounded=0;exitX=0.5;exitY=0;exitDx=0;exitDy=0;" edge="1" parent="1" source="MwAe-ZKwVNbbqnce8Q7p-72">
          <mxGeometry width="50" height="50" relative="1" as="geometry">
            <mxPoint x="1120" y="316.0000000000002" as="sourcePoint" />
            <mxPoint x="807.0550458715593" y="227.99999999999977" as="targetPoint" />
          </mxGeometry>
        </mxCell>
      </root>
    </mxGraphModel>
  </diagram>
</mxfile>
